<svg width="30" height="30" viewBox="0 0 71 69" fill="none" xmlns="http://www.w3.org/2000/svg">
<path d="M35.5 69C55.0605 69 71 53.5095 71 34.5001C71 15.4906 55.0605 0.00012207 35.5 0.00012207C15.9395 0.00012207 0 15.4906 0 34.5001C0 53.5095 15.9395 69 35.5 69ZM25.5955 32.6716L38.127 20.4931C38.6595 19.9756 39.334 19.7341 40.0085 19.7341C40.683 19.7341 41.3575 19.9756 41.89 20.4931C42.9195 21.4936 42.9195 23.1496 41.89 24.1501L31.24 34.5001L41.89 44.85C42.9195 45.8505 42.9195 47.5065 41.89 48.507C40.8605 49.5075 39.1565 49.5075 38.127 48.507L25.5955 36.3286C24.5305 35.3281 24.5305 33.6721 25.5955 32.6716Z" fill="#8C52FF"/>
</svg>
