<svg width="30" height="30" viewBox="0 0 63 54" fill="none" xmlns="http://www.w3.org/2000/svg">
<path d="M0 6.75C0 4.95979 0.657212 3.2429 1.82706 1.97703C2.9969 0.711158 4.58356 0 6.23797 0H34.3088C35.9632 0 37.5499 0.711158 38.7197 1.97703C39.8896 3.2429 40.5468 4.95979 40.5468 6.75V13.5C40.5468 14.3951 40.2182 15.2535 39.6333 15.8865C39.0483 16.5194 38.255 16.875 37.4278 16.875C36.6006 16.875 35.8073 16.5194 35.2224 15.8865C34.6374 15.2535 34.3088 14.3951 34.3088 13.5V6.75H6.23797V47.25H34.3088V40.5C34.3088 39.6049 34.6374 38.7465 35.2224 38.1135C35.8073 37.4806 36.6006 37.125 37.4278 37.125C38.255 37.125 39.0483 37.4806 39.6333 38.1135C40.2182 38.7465 40.5468 39.6049 40.5468 40.5V47.25C40.5468 49.0402 39.8896 50.7571 38.7197 52.023C37.5499 53.2888 35.9632 54 34.3088 54H6.23797C4.58356 54 2.9969 53.2888 1.82706 52.023C0.657212 50.7571 0 49.0402 0 47.25V6.75ZM47.6986 14.4889C48.2835 13.8562 49.0767 13.5007 49.9038 13.5007C50.7308 13.5007 51.524 13.8562 52.1089 14.4889L61.4658 24.6139C62.0506 25.2468 62.379 26.1051 62.379 27C62.379 27.8949 62.0506 28.7532 61.4658 29.3861L52.1089 39.5111C51.5206 40.1259 50.7328 40.4661 49.915 40.4584C49.0972 40.4507 48.3149 40.0958 47.7366 39.47C47.1583 38.8443 46.8303 37.9978 46.8232 37.1129C46.8161 36.2279 47.1305 35.3754 47.6986 34.7389L51.7315 30.375H21.8329C21.0057 30.375 20.2124 30.0194 19.6274 29.3865C19.0425 28.7535 18.7139 27.8951 18.7139 27C18.7139 26.1049 19.0425 25.2465 19.6274 24.6135C20.2124 23.9806 21.0057 23.625 21.8329 23.625H51.7315L47.6986 19.2611C47.1139 18.6282 46.7854 17.7699 46.7854 16.875C46.7854 15.9801 47.1139 15.1218 47.6986 14.4889Z" fill="white"/>
</svg>
