<svg width="26" height="26" viewBox="0 0 56 61" fill="none" xmlns="http://www.w3.org/2000/svg">
<path d="M54.5757 38.0031L50.9444 33.0035C50.1818 31.8891 49.4919 29.7809 49.4919 28.546V20.9261C49.4919 13.8483 44.4807 7.73434 37.2545 4.87311C35.3662 2.10224 31.8802 0.385498 27.8858 0.385498C23.9277 0.385498 20.3692 2.16247 18.481 4.96346C11.4 7.88493 6.49778 13.9387 6.49778 20.9261V28.546C6.49778 29.7809 5.80784 31.8891 5.04527 32.9734L1.37769 38.0031C-0.0748195 40.021 -0.401633 42.2498 0.506185 44.2978C1.37769 46.3157 3.44751 47.8819 6.13465 48.6348C13.1793 50.6227 20.5871 51.5864 27.9948 51.5864C35.4026 51.5864 42.8103 50.6227 49.855 48.665C52.3969 47.9722 54.3578 46.376 55.3019 44.2978C56.2461 42.2197 55.9919 39.9307 54.5757 38.0031Z" fill="white"/>
<path d="M38.199 54.6285C36.6738 58.1222 32.6431 60.622 27.9225 60.622C25.0538 60.622 22.2214 59.6582 20.2241 57.9415C19.0621 57.038 18.1906 55.8332 17.6823 54.5984C18.1543 54.6586 18.6264 54.6887 19.1348 54.749C19.9699 54.8393 20.8415 54.9297 21.713 54.9899C23.7828 55.1405 25.889 55.2309 27.9951 55.2309C30.0649 55.2309 32.1347 55.1405 34.1683 54.9899C34.9308 54.9297 35.6934 54.8996 36.4196 54.8092C37.0006 54.749 37.5816 54.6887 38.199 54.6285Z" fill="white"/>
</svg>
