<svg width="23" height="28"  viewBox="0 0 60 42" fill="none" xmlns="http://www.w3.org/2000/svg">
<path d="M0.241699 3C0.241699 2.20435 0.636495 1.44129 1.33923 0.87868C2.04198 0.316071 2.9951 0 3.98892 0H63.9445C64.9383 0 65.8914 0.316071 66.5942 0.87868C67.2969 1.44129 67.6917 2.20435 67.6917 3C67.6917 3.79565 67.2969 4.55871 66.5942 5.12132C65.8914 5.68393 64.9383 6 63.9445 6H3.98892C2.9951 6 2.04198 5.68393 1.33923 5.12132C0.636495 4.55871 0.241699 3.79565 0.241699 3ZM63.9445 18H3.98892C2.9951 18 2.04198 18.3161 1.33923 18.8787C0.636495 19.4413 0.241699 20.2044 0.241699 21C0.241699 21.7956 0.636495 22.5587 1.33923 23.1213C2.04198 23.6839 2.9951 24 3.98892 24H63.9445C64.9383 24 65.8914 23.6839 66.5942 23.1213C67.2969 22.5587 67.6917 21.7956 67.6917 21C67.6917 20.2044 67.2969 19.4413 66.5942 18.8787C65.8914 18.3161 64.9383 18 63.9445 18ZM63.9445 36H3.98892C2.9951 36 2.04198 36.3161 1.33923 36.8787C0.636495 37.4413 0.241699 38.2044 0.241699 39C0.241699 39.7956 0.636495 40.5587 1.33923 41.1213C2.04198 41.6839 2.9951 42 3.98892 42H63.9445C64.9383 42 65.8914 41.6839 66.5942 41.1213C67.2969 40.5587 67.6917 39.7956 67.6917 39C67.6917 38.2044 67.2969 37.4413 66.5942 36.8787C65.8914 36.3161 64.9383 36 63.9445 36Z" fill="white"/>
</svg>
